<mxfile host="app.diagrams.net" agent="Mozilla/5.0 (Windows NT 10.0; Win64; x64) AppleWebKit/537.36 (KHTML, like Gecko) Chrome/140.0.0.0 Safari/537.36" version="28.2.5">
  <diagram name="Page-1" id="TIAqLz6Ra4FzqVcUgQRM">
    <mxGraphModel dx="1722" dy="626" grid="1" gridSize="10" guides="1" tooltips="1" connect="1" arrows="1" fold="1" page="1" pageScale="1" pageWidth="850" pageHeight="1100" math="0" shadow="0">
      <root>
        <mxCell id="0" />
        <mxCell id="1" parent="0" />
        <mxCell id="hgzKIwfDHN3XGEvGEK5B-1" value="end" style="ellipse;whiteSpace=wrap;html=1;" vertex="1" parent="1">
          <mxGeometry x="20" y="950" width="120" height="80" as="geometry" />
        </mxCell>
        <mxCell id="hgzKIwfDHN3XGEvGEK5B-2" value="start" style="ellipse;whiteSpace=wrap;html=1;" vertex="1" parent="1">
          <mxGeometry x="140" y="60" width="120" height="80" as="geometry" />
        </mxCell>
        <mxCell id="hgzKIwfDHN3XGEvGEK5B-41" value="" style="edgeStyle=orthogonalEdgeStyle;rounded=0;orthogonalLoop=1;jettySize=auto;html=1;" edge="1" parent="1" source="hgzKIwfDHN3XGEvGEK5B-3" target="hgzKIwfDHN3XGEvGEK5B-36">
          <mxGeometry relative="1" as="geometry" />
        </mxCell>
        <mxCell id="hgzKIwfDHN3XGEvGEK5B-3" value="Statement 4" style="rounded=0;whiteSpace=wrap;html=1;" vertex="1" parent="1">
          <mxGeometry x="700" y="710" width="120" height="60" as="geometry" />
        </mxCell>
        <mxCell id="hgzKIwfDHN3XGEvGEK5B-40" value="" style="edgeStyle=orthogonalEdgeStyle;rounded=0;orthogonalLoop=1;jettySize=auto;html=1;" edge="1" parent="1" source="hgzKIwfDHN3XGEvGEK5B-4" target="hgzKIwfDHN3XGEvGEK5B-36">
          <mxGeometry relative="1" as="geometry" />
        </mxCell>
        <mxCell id="hgzKIwfDHN3XGEvGEK5B-4" value="Statement 3" style="rounded=0;whiteSpace=wrap;html=1;" vertex="1" parent="1">
          <mxGeometry x="490" y="570" width="120" height="60" as="geometry" />
        </mxCell>
        <mxCell id="hgzKIwfDHN3XGEvGEK5B-39" value="" style="edgeStyle=orthogonalEdgeStyle;rounded=0;orthogonalLoop=1;jettySize=auto;html=1;" edge="1" parent="1" source="hgzKIwfDHN3XGEvGEK5B-5" target="hgzKIwfDHN3XGEvGEK5B-36">
          <mxGeometry relative="1" as="geometry" />
        </mxCell>
        <mxCell id="hgzKIwfDHN3XGEvGEK5B-5" value="Statement 2" style="rounded=0;whiteSpace=wrap;html=1;" vertex="1" parent="1">
          <mxGeometry x="260" y="410" width="120" height="60" as="geometry" />
        </mxCell>
        <mxCell id="hgzKIwfDHN3XGEvGEK5B-38" value="" style="edgeStyle=orthogonalEdgeStyle;rounded=0;orthogonalLoop=1;jettySize=auto;html=1;" edge="1" parent="1" source="hgzKIwfDHN3XGEvGEK5B-6" target="hgzKIwfDHN3XGEvGEK5B-36">
          <mxGeometry relative="1" as="geometry" />
        </mxCell>
        <mxCell id="hgzKIwfDHN3XGEvGEK5B-6" value="Statement 1" style="rounded=0;whiteSpace=wrap;html=1;" vertex="1" parent="1">
          <mxGeometry x="20" y="300" width="120" height="60" as="geometry" />
        </mxCell>
        <mxCell id="hgzKIwfDHN3XGEvGEK5B-42" value="" style="edgeStyle=orthogonalEdgeStyle;rounded=0;orthogonalLoop=1;jettySize=auto;html=1;" edge="1" parent="1" source="hgzKIwfDHN3XGEvGEK5B-7">
          <mxGeometry relative="1" as="geometry">
            <mxPoint x="120" y="790" as="targetPoint" />
            <Array as="points">
              <mxPoint x="450" y="910" />
              <mxPoint x="450" y="790" />
            </Array>
          </mxGeometry>
        </mxCell>
        <mxCell id="hgzKIwfDHN3XGEvGEK5B-7" value="Statement 5" style="rounded=0;whiteSpace=wrap;html=1;" vertex="1" parent="1">
          <mxGeometry x="940" y="880" width="120" height="60" as="geometry" />
        </mxCell>
        <mxCell id="hgzKIwfDHN3XGEvGEK5B-8" value="if&amp;nbsp;&lt;div&gt;A = YES&amp;nbsp;&lt;/div&gt;&lt;div&gt;&lt;span style=&quot;background-color: transparent; color: light-dark(rgb(0, 0, 0), rgb(255, 255, 255));&quot;&gt;B = YES&lt;/span&gt;&lt;/div&gt;&lt;div&gt;&lt;span style=&quot;background-color: transparent; color: light-dark(rgb(0, 0, 0), rgb(255, 255, 255));&quot;&gt;C&amp;nbsp; = YES&lt;/span&gt;&lt;/div&gt;" style="rhombus;whiteSpace=wrap;html=1;" vertex="1" parent="1">
          <mxGeometry x="130" y="180" width="140" height="120" as="geometry" />
        </mxCell>
        <mxCell id="hgzKIwfDHN3XGEvGEK5B-9" value="if&amp;nbsp;&lt;div&gt;A = YES&lt;br&gt;C = YES&lt;/div&gt;&lt;div&gt;B = NO&lt;/div&gt;" style="rhombus;whiteSpace=wrap;html=1;" vertex="1" parent="1">
          <mxGeometry x="360" y="290" width="140" height="120" as="geometry" />
        </mxCell>
        <mxCell id="hgzKIwfDHN3XGEvGEK5B-10" value="IF&amp;nbsp;&lt;div&gt;A = NO&lt;br&gt;&lt;div&gt;B = YES&lt;/div&gt;&lt;div&gt;C = YES&lt;/div&gt;&lt;/div&gt;" style="rhombus;whiteSpace=wrap;html=1;" vertex="1" parent="1">
          <mxGeometry x="600" y="450" width="140" height="120" as="geometry" />
        </mxCell>
        <mxCell id="hgzKIwfDHN3XGEvGEK5B-11" value="IF&lt;div&gt;A = NO&lt;span style=&quot;background-color: transparent; color: light-dark(rgb(0, 0, 0), rgb(255, 255, 255));&quot;&gt;&amp;nbsp;&lt;/span&gt;&lt;/div&gt;&lt;div&gt;&lt;div&gt;B = YES&lt;/div&gt;&lt;div&gt;C = NO&lt;/div&gt;&lt;/div&gt;" style="rhombus;whiteSpace=wrap;html=1;" vertex="1" parent="1">
          <mxGeometry x="1050" y="760" width="140" height="120" as="geometry" />
        </mxCell>
        <mxCell id="hgzKIwfDHN3XGEvGEK5B-12" value="IF&amp;nbsp;&lt;div&gt;A = NO&lt;/div&gt;&lt;div&gt;B = NO&lt;br&gt;&lt;div&gt;C = YES&lt;/div&gt;&lt;div&gt;&lt;br&gt;&lt;/div&gt;&lt;/div&gt;" style="rhombus;whiteSpace=wrap;html=1;" vertex="1" parent="1">
          <mxGeometry x="810" y="590" width="140" height="120" as="geometry" />
        </mxCell>
        <mxCell id="hgzKIwfDHN3XGEvGEK5B-13" value="" style="endArrow=none;html=1;rounded=0;entryX=0;entryY=0.5;entryDx=0;entryDy=0;exitX=0.5;exitY=0;exitDx=0;exitDy=0;" edge="1" parent="1" source="hgzKIwfDHN3XGEvGEK5B-6" target="hgzKIwfDHN3XGEvGEK5B-8">
          <mxGeometry width="50" height="50" relative="1" as="geometry">
            <mxPoint x="400" y="410" as="sourcePoint" />
            <mxPoint x="450" y="360" as="targetPoint" />
            <Array as="points">
              <mxPoint x="80" y="240" />
            </Array>
          </mxGeometry>
        </mxCell>
        <mxCell id="hgzKIwfDHN3XGEvGEK5B-14" value="YES" style="text;html=1;align=center;verticalAlign=middle;whiteSpace=wrap;rounded=0;" vertex="1" parent="1">
          <mxGeometry x="110" y="190" width="60" height="30" as="geometry" />
        </mxCell>
        <mxCell id="hgzKIwfDHN3XGEvGEK5B-16" value="NO" style="text;html=1;align=center;verticalAlign=middle;whiteSpace=wrap;rounded=0;" vertex="1" parent="1">
          <mxGeometry x="230" y="190" width="60" height="30" as="geometry" />
        </mxCell>
        <mxCell id="hgzKIwfDHN3XGEvGEK5B-18" value="YES" style="text;html=1;align=center;verticalAlign=middle;whiteSpace=wrap;rounded=0;" vertex="1" parent="1">
          <mxGeometry x="340" y="300" width="60" height="30" as="geometry" />
        </mxCell>
        <mxCell id="hgzKIwfDHN3XGEvGEK5B-19" value="NO" style="text;html=1;align=center;verticalAlign=middle;whiteSpace=wrap;rounded=0;" vertex="1" parent="1">
          <mxGeometry x="460" y="300" width="60" height="30" as="geometry" />
        </mxCell>
        <mxCell id="hgzKIwfDHN3XGEvGEK5B-20" value="" style="endArrow=none;html=1;rounded=0;entryX=0;entryY=0.5;entryDx=0;entryDy=0;exitX=0.5;exitY=0;exitDx=0;exitDy=0;" edge="1" parent="1">
          <mxGeometry width="50" height="50" relative="1" as="geometry">
            <mxPoint x="315" y="410" as="sourcePoint" />
            <mxPoint x="365" y="350" as="targetPoint" />
            <Array as="points">
              <mxPoint x="315" y="350" />
            </Array>
          </mxGeometry>
        </mxCell>
        <mxCell id="hgzKIwfDHN3XGEvGEK5B-21" value="" style="endArrow=none;html=1;rounded=0;entryX=0;entryY=0.5;entryDx=0;entryDy=0;exitX=0.5;exitY=0;exitDx=0;exitDy=0;" edge="1" parent="1">
          <mxGeometry width="50" height="50" relative="1" as="geometry">
            <mxPoint x="550" y="570" as="sourcePoint" />
            <mxPoint x="600" y="510" as="targetPoint" />
            <Array as="points">
              <mxPoint x="550" y="510" />
            </Array>
          </mxGeometry>
        </mxCell>
        <mxCell id="hgzKIwfDHN3XGEvGEK5B-22" value="" style="endArrow=none;html=1;rounded=0;entryX=0;entryY=0.5;entryDx=0;entryDy=0;exitX=0.5;exitY=0;exitDx=0;exitDy=0;" edge="1" parent="1">
          <mxGeometry width="50" height="50" relative="1" as="geometry">
            <mxPoint x="760" y="710" as="sourcePoint" />
            <mxPoint x="810" y="650" as="targetPoint" />
            <Array as="points">
              <mxPoint x="760" y="650" />
            </Array>
          </mxGeometry>
        </mxCell>
        <mxCell id="hgzKIwfDHN3XGEvGEK5B-23" value="" style="endArrow=none;html=1;rounded=0;entryX=0;entryY=0.5;entryDx=0;entryDy=0;exitX=0.5;exitY=0;exitDx=0;exitDy=0;" edge="1" parent="1">
          <mxGeometry width="50" height="50" relative="1" as="geometry">
            <mxPoint x="1000" y="880" as="sourcePoint" />
            <mxPoint x="1050" y="820" as="targetPoint" />
            <Array as="points">
              <mxPoint x="1000" y="820" />
            </Array>
          </mxGeometry>
        </mxCell>
        <mxCell id="hgzKIwfDHN3XGEvGEK5B-24" value="YES" style="text;html=1;align=center;verticalAlign=middle;whiteSpace=wrap;rounded=0;" vertex="1" parent="1">
          <mxGeometry x="570" y="440" width="60" height="30" as="geometry" />
        </mxCell>
        <mxCell id="hgzKIwfDHN3XGEvGEK5B-25" value="NO" style="text;html=1;align=center;verticalAlign=middle;whiteSpace=wrap;rounded=0;" vertex="1" parent="1">
          <mxGeometry x="690" y="440" width="60" height="30" as="geometry" />
        </mxCell>
        <mxCell id="hgzKIwfDHN3XGEvGEK5B-26" value="YES" style="text;html=1;align=center;verticalAlign=middle;whiteSpace=wrap;rounded=0;" vertex="1" parent="1">
          <mxGeometry x="790" y="585" width="60" height="30" as="geometry" />
        </mxCell>
        <mxCell id="hgzKIwfDHN3XGEvGEK5B-27" value="NO" style="text;html=1;align=center;verticalAlign=middle;whiteSpace=wrap;rounded=0;" vertex="1" parent="1">
          <mxGeometry x="910" y="585" width="60" height="30" as="geometry" />
        </mxCell>
        <mxCell id="hgzKIwfDHN3XGEvGEK5B-28" value="YES" style="text;html=1;align=center;verticalAlign=middle;whiteSpace=wrap;rounded=0;" vertex="1" parent="1">
          <mxGeometry x="1030" y="750" width="60" height="30" as="geometry" />
        </mxCell>
        <mxCell id="hgzKIwfDHN3XGEvGEK5B-29" value="NULL" style="text;html=1;align=center;verticalAlign=middle;whiteSpace=wrap;rounded=0;" vertex="1" parent="1">
          <mxGeometry x="1150" y="750" width="60" height="30" as="geometry" />
        </mxCell>
        <mxCell id="hgzKIwfDHN3XGEvGEK5B-30" value="" style="endArrow=none;html=1;rounded=0;entryX=0.5;entryY=0;entryDx=0;entryDy=0;" edge="1" parent="1" target="hgzKIwfDHN3XGEvGEK5B-9">
          <mxGeometry width="50" height="50" relative="1" as="geometry">
            <mxPoint x="270" y="240" as="sourcePoint" />
            <mxPoint x="320" y="190" as="targetPoint" />
            <Array as="points">
              <mxPoint x="430" y="240" />
            </Array>
          </mxGeometry>
        </mxCell>
        <mxCell id="hgzKIwfDHN3XGEvGEK5B-31" value="" style="endArrow=none;html=1;rounded=0;entryX=0.5;entryY=0;entryDx=0;entryDy=0;" edge="1" parent="1" target="hgzKIwfDHN3XGEvGEK5B-10">
          <mxGeometry width="50" height="50" relative="1" as="geometry">
            <mxPoint x="500" y="350" as="sourcePoint" />
            <mxPoint x="660" y="400" as="targetPoint" />
            <Array as="points">
              <mxPoint x="670" y="350" />
            </Array>
          </mxGeometry>
        </mxCell>
        <mxCell id="hgzKIwfDHN3XGEvGEK5B-32" value="" style="endArrow=none;html=1;rounded=0;entryX=0.5;entryY=0;entryDx=0;entryDy=0;" edge="1" parent="1" target="hgzKIwfDHN3XGEvGEK5B-12">
          <mxGeometry width="50" height="50" relative="1" as="geometry">
            <mxPoint x="735" y="510" as="sourcePoint" />
            <mxPoint x="905" y="610" as="targetPoint" />
            <Array as="points">
              <mxPoint x="880" y="510" />
            </Array>
          </mxGeometry>
        </mxCell>
        <mxCell id="hgzKIwfDHN3XGEvGEK5B-33" value="" style="endArrow=none;html=1;rounded=0;entryX=0.5;entryY=0;entryDx=0;entryDy=0;" edge="1" parent="1" target="hgzKIwfDHN3XGEvGEK5B-11">
          <mxGeometry width="50" height="50" relative="1" as="geometry">
            <mxPoint x="950" y="650" as="sourcePoint" />
            <mxPoint x="1095" y="730" as="targetPoint" />
            <Array as="points">
              <mxPoint x="1120" y="650" />
            </Array>
          </mxGeometry>
        </mxCell>
        <mxCell id="hgzKIwfDHN3XGEvGEK5B-35" value="" style="endArrow=none;dashed=1;html=1;rounded=0;entryX=1;entryY=0.5;entryDx=0;entryDy=0;exitX=0.992;exitY=0.588;exitDx=0;exitDy=0;exitPerimeter=0;" edge="1" parent="1" source="hgzKIwfDHN3XGEvGEK5B-1" target="hgzKIwfDHN3XGEvGEK5B-11">
          <mxGeometry width="50" height="50" relative="1" as="geometry">
            <mxPoint x="740" y="870" as="sourcePoint" />
            <mxPoint x="790" y="820" as="targetPoint" />
            <Array as="points">
              <mxPoint x="1190" y="1010" />
            </Array>
          </mxGeometry>
        </mxCell>
        <mxCell id="hgzKIwfDHN3XGEvGEK5B-37" value="" style="edgeStyle=orthogonalEdgeStyle;rounded=0;orthogonalLoop=1;jettySize=auto;html=1;" edge="1" parent="1" source="hgzKIwfDHN3XGEvGEK5B-36" target="hgzKIwfDHN3XGEvGEK5B-1">
          <mxGeometry relative="1" as="geometry" />
        </mxCell>
        <mxCell id="hgzKIwfDHN3XGEvGEK5B-36" value="PRINT STATEMENT" style="shape=parallelogram;perimeter=parallelogramPerimeter;whiteSpace=wrap;html=1;fixedSize=1;" vertex="1" parent="1">
          <mxGeometry y="850" width="240" height="60" as="geometry" />
        </mxCell>
        <mxCell id="hgzKIwfDHN3XGEvGEK5B-48" value="" style="endArrow=none;html=1;rounded=0;entryX=0.5;entryY=1;entryDx=0;entryDy=0;exitX=0.5;exitY=0;exitDx=0;exitDy=0;" edge="1" parent="1" source="hgzKIwfDHN3XGEvGEK5B-8" target="hgzKIwfDHN3XGEvGEK5B-2">
          <mxGeometry width="50" height="50" relative="1" as="geometry">
            <mxPoint x="740" y="370" as="sourcePoint" />
            <mxPoint x="790" y="320" as="targetPoint" />
          </mxGeometry>
        </mxCell>
        <mxCell id="hgzKIwfDHN3XGEvGEK5B-49" value="&lt;h1 style=&quot;margin-top: 0px;&quot;&gt;GEOF DJERNAES&lt;/h1&gt;&lt;div&gt;W7A5 DECISION STRUCTURES PRACTICE 3&lt;/div&gt;&lt;div&gt;&lt;br&gt;&lt;/div&gt;&lt;div&gt;&lt;p style=&quot;margin:0in;font-family:Calibri;font-size:11.0pt&quot;&gt;Algorithm processing map&lt;/p&gt;&lt;p style=&quot;margin:0in;font-family:Calibri;font-size:11.0pt&quot;&gt;If A B C = statement1&lt;/p&gt;&lt;p style=&quot;margin:0in;font-family:Calibri;font-size:11.0pt&quot;&gt;If A C = statement 2&lt;/p&gt;&lt;p style=&quot;margin:0in;font-family:Calibri;font-size:11.0pt&quot;&gt;If B C = statement 3&lt;/p&gt;&lt;p style=&quot;margin:0in;font-family:Calibri;font-size:11.0pt&quot;&gt;If C = statement 4&lt;/p&gt;&lt;p style=&quot;margin:0in;font-family:Calibri;font-size:11.0pt&quot;&gt;If B = statement 5&lt;/p&gt;if A = NULL/ NO STATEMENT, A IS NEVER ON WITHOUT C OR B&lt;/div&gt;&lt;div&gt;&lt;br&gt;&lt;p style=&quot;margin:0in;font-family:Calibri;font-size:11.0pt&quot;&gt;&lt;br&gt;&lt;/p&gt;&lt;p style=&quot;margin:0in;font-family:Calibri;font-size:11.0pt&quot;&gt;PRINT STATEMENT CONDITION&lt;/p&gt;&lt;p style=&quot;margin:0in;font-family:Calibri;font-size:11.0pt&quot;&gt;Statement 1 IF has A B C&lt;/p&gt;&lt;p style=&quot;margin:0in;font-family:Calibri;font-size:11.0pt&quot;&gt;Statement 2 IF has A&amp;nbsp;C&lt;/p&gt;&lt;p style=&quot;margin:0in;font-family:Calibri;font-size:11.0pt&quot;&gt;Statement 3 IF has B&amp;nbsp;C&lt;/p&gt;&lt;p style=&quot;margin:0in;font-family:Calibri;font-size:11.0pt&quot;&gt;Statement 4 IF C&lt;/p&gt;&lt;p style=&quot;margin:0in;font-family:Calibri;font-size:11.0pt&quot;&gt;Statement 5 IF B&lt;/p&gt;&lt;p style=&quot;margin:0in;font-family:Calibri;font-size:11.0pt&quot;&gt;&lt;br&gt;&lt;/p&gt;&lt;/div&gt;" style="text;html=1;whiteSpace=wrap;overflow=hidden;rounded=0;" vertex="1" parent="1">
          <mxGeometry x="735" y="60" width="410" height="410" as="geometry" />
        </mxCell>
      </root>
    </mxGraphModel>
  </diagram>
</mxfile>
